<?xml version="1.0" encoding="UTF-8" standalone="no"?>
<!-- Created with Inkscape (http://www.inkscape.org/) -->

<svg
   xmlns:dc="http://purl.org/dc/elements/1.1/"
   xmlns:cc="http://creativecommons.org/ns#"
   xmlns:rdf="http://www.w3.org/1999/02/22-rdf-syntax-ns#"
   xmlns:svg="http://www.w3.org/2000/svg"
   xmlns="http://www.w3.org/2000/svg"
   xmlns:sodipodi="http://sodipodi.sourceforge.net/DTD/sodipodi-0.dtd"
   xmlns:inkscape="http://www.inkscape.org/namespaces/inkscape"
   width="64px"
   height="64px"
   id="svg3122"
   version="1.1"
   inkscape:version="0.91 r"
   sodipodi:docname="icons.svg">
  <defs
     id="defs3124" />
  <sodipodi:namedview
     id="base"
     pagecolor="#ffffff"
     bordercolor="#666666"
     borderopacity="1.0"
     inkscape:pageopacity="0.0"
     inkscape:pageshadow="2"
     inkscape:zoom="8"
     inkscape:cx="32"
     inkscape:cy="32"
     inkscape:current-layer="layer2"
     showgrid="false"
     inkscape:document-units="px"
     inkscape:grid-bbox="true"
     inkscape:window-width="1598"
     inkscape:window-height="879"
     inkscape:window-x="0"
     inkscape:window-y="19"
     inkscape:window-maximized="1">
    <inkscape:grid
       type="xygrid"
       id="grid4183" />
  </sodipodi:namedview>
  <metadata
     id="metadata3127">
    <rdf:RDF>
      <cc:Work
         rdf:about="">
        <dc:format>image/svg+xml</dc:format>
        <dc:type
           rdf:resource="http://purl.org/dc/dcmitype/StillImage" />
        <dc:title></dc:title>
      </cc:Work>
    </rdf:RDF>
  </metadata>
  <g
     inkscape:groupmode="layer"
     id="layer2"
     inkscape:label="Clocks"
     style="display:inline">
    <g
       id="clock15m">
      <circle
         transform="translate(1,-0.875)"
         id="path3188"
         style="color:#000000;display:inline;overflow:visible;visibility:visible;fill:#224466;fill-opacity:1;fill-rule:nonzero;stroke:#224466;stroke-width:4;stroke-linecap:round;stroke-linejoin:miter;stroke-miterlimit:2.5;stroke-dasharray:none;stroke-dashoffset:0;stroke-opacity:1;marker:none;enable-background:accumulate"
         cx="31"
         cy="32.875"
         r="25" />
      <path
         transform="translate(1,-0.875)"
         sodipodi:end="6.2758463"
         sodipodi:start="4.7144976"
         d="m 31.048498,10.056869 a 23,22.818182 0 0 1 22.950883,22.65067 L 31,32.875 Z"
         sodipodi:ry="22.818182"
         sodipodi:rx="23"
         sodipodi:cy="32.875"
         sodipodi:cx="31"
         id="path3188-2"
         style="color:#000000;display:inline;overflow:visible;visibility:visible;fill:#aaeedd;fill-opacity:1;fill-rule:nonzero;stroke:none;stroke-width:1;marker:none;enable-background:accumulate"
         sodipodi:type="arc" />
    </g>
    <g
       style="display:inline"
       id="clock1h">
      <circle
         transform="translate(1,-0.875)"
         id="path3188-6"
         style="color:#000000;display:inline;overflow:visible;visibility:visible;fill:#224466;fill-opacity:1;fill-rule:nonzero;stroke:#224466;stroke-width:4;stroke-linecap:round;stroke-linejoin:miter;stroke-miterlimit:2.5;stroke-dasharray:none;stroke-dashoffset:0;stroke-opacity:1;marker:none;enable-background:accumulate"
         cx="31"
         cy="32.875"
         r="25" />
      <path
         transform="translate(1,-0.875)"
         sodipodi:end="4.712389"
         sodipodi:start="4.7144976"
         d="M 31.048498,10.056869 A 23,22.818182 0 0 1 53.999971,32.911086 23,22.818182 0 0 1 30.975751,55.693169 23,22.818182 0 0 1 8.0000032,32.862971 23,22.818182 0 0 1 31,10.056818"
         sodipodi:ry="22.818182"
         sodipodi:rx="23"
         sodipodi:cy="32.875"
         sodipodi:cx="31"
         id="path3188-2-4"
         style="color:#000000;display:inline;overflow:visible;visibility:visible;fill:#aaeedd;fill-opacity:1;fill-rule:nonzero;stroke:none;stroke-width:1;marker:none;enable-background:accumulate"
         sodipodi:type="arc"
         sodipodi:open="true" />
    </g>
  </g>
  <g
     id="layer1"
     inkscape:label="Gear"
     inkscape:groupmode="layer"
     style="display:none"
     sodipodi:insensitive="true">
    <path
       inkscape:connector-curvature="0"
       style="color:#000000;font-style:normal;font-variant:normal;font-weight:normal;font-stretch:normal;font-size:medium;line-height:normal;font-family:Sans;-inkscape-font-specification:Sans;text-indent:0;text-align:start;text-decoration:none;text-decoration-line:none;letter-spacing:normal;word-spacing:normal;text-transform:none;direction:ltr;block-progression:tb;writing-mode:lr-tb;baseline-shift:baseline;text-anchor:start;display:inline;overflow:visible;visibility:visible;fill:#000000;fill-opacity:1;fill-rule:nonzero;stroke:none;stroke-width:1;marker:none;enable-background:accumulate"
       d="M 32.65625,0.37499951 C 23.144154,0.31225341 16.976275,1.5469866 12.71875,4.3124995 8.461225,7.0780124 6.8771456,11.901109 7.40625,15.71875 c 0.340365,2.455831 1.2062191,4.706835 2.21875,6.625 -5.6336093,5.184757 -9.59375,12.117717 -9.59375,19.75 0,8.023469 4.0727842,13.653274 10.0625,17.1875 5.989716,3.534226 13.891231,5.03125 21.8125,5.03125 7.921269,0 15.854034,-1.497024 21.84375,-5.03125 5.989716,-3.534226 10.03125,-9.164031 10.03125,-17.1875 0,-7.244519 -3.601417,-13.898333 -8.84375,-19 1.114467,-1.981558 2.099045,-4.338452 2.5,-6.9375 C 58.025477,12.3449 56.591084,7.4810469 52.40625,4.6249995 48.221416,1.7689521 42.0843,0.43719119 32.65625,0.37499951 Z M 32.625,8.3749995 c 8.611944,0.056808 13.308017,1.518394 15.25,2.8437505 1.941983,1.325356 1.919181,2.014396 1.65625,3.71875 C 49.388848,15.860569 48.942582,16.931254 48.375,18 43.135836,14.805343 37.213274,12.952891 31.71875,12.96875 c -5.084544,0.01467 -10.481263,1.658642 -15.375,4.46875 -0.499671,-0.99225 -0.883023,-1.968478 -1,-2.8125 -0.231031,-1.666955 -0.287008,-2.290892 1.71875,-3.59375 2.005758,-1.3028585 6.852236,-2.7137073 15.5625,-2.6562505 z"
       id="kettlebell"
       sodipodi:nodetypes="ssscssssscsssssscscsss" />
    <path
       style="fill:#000000;fill-opacity:1;stroke:none"
       d="M 57.636365,58.727273 C 54.76946,68.158223 9.81564,53.257862 2.3636364,36.181818 5.7722967,20.724922 34.545455,5.8181812 34.545455,5.8181812 c 0,0 5.233579,-4.5225178 15.636364,-3.6363633 1.537896,4.6022387 5.411494,11.3852451 1.454546,13.0909101 -8.78825,2.411922 -8.411103,1.722194 -16.181819,-2.000001 -3.960208,1.526782 -8.964219,19.458181 -12.909091,20.545455 5.566773,3.900597 13.60403,-3.777455 20.181818,4.636363 6.577788,8.413818 18.94157,7.007516 14.909092,20.272728 z"
       id="arm"
       inkscape:connector-curvature="0"
       sodipodi:nodetypes="scccccczs" />
    <path
       inkscape:connector-curvature="0"
       style="color:#000000;font-style:normal;font-variant:normal;font-weight:normal;font-stretch:normal;font-size:medium;line-height:normal;font-family:Sans;-inkscape-font-specification:Sans;text-indent:0;text-align:start;text-decoration:none;text-decoration-line:none;letter-spacing:normal;word-spacing:normal;text-transform:none;direction:ltr;block-progression:tb;writing-mode:lr-tb;baseline-shift:baseline;text-anchor:start;display:inline;overflow:visible;visibility:visible;fill:#000000;fill-opacity:1;stroke:none;stroke-width:10;marker:none;enable-background:accumulate"
       d="m 17.21875,0.43749981 a 3.50035,3.50035 0 0 0 -3.4375,3.56249999 l 0,23.4062502 -1,0 0,-18.4062502 a 3.50035,3.50035 0 0 0 -3.5625001,-3.5625 3.50035,3.50035 0 0 0 -3.4375,3.5625 l 0,18.3750002 -0.6875,0 a 5.0005,5.0005 0 0 0 -0.5,0 5.0054901,5.0054901 0 1 0 0.46875,10 l 0.71875,0 0,17.09375 a 3.50035,3.50035 0 1 0 7.0000001,0 l 0,-17.0625 1,0 0,22.96875 a 3.50035,3.50035 0 1 0 7,0 l 0,-22.96875 22.8125,0.09375 0,22.875 a 3.50035,3.50035 0 1 0 7,0 l 0,-22.875 1,0 0,16.96875 a 3.50035,3.50035 0 1 0 7,0 l 0,-16.9375 0.46875,0 a 5.0005,5.0005 0 1 0 0.03125,-10 l -0.5,0 0,-18.5312502 a 3.50035,3.50035 0 0 0 -3.5625,-3.5625 3.50035,3.50035 0 0 0 -3.4375,3.5625 l 0,18.5000002 -1,0 0,-23.5000002 a 3.50035,3.50035 0 0 0 -3.5625,-3.56249999 3.50035,3.50035 0 0 0 -3.4375,3.56249999 l 0,23.5000002 -22.8125,-0.09375 0,-23.4062502 a 3.50035,3.50035 0 0 0 -3.5625,-3.56249999 z"
       id="dumbbell" />
  </g>
</svg>
